<?xml version="1.0" encoding="utf-8"?>
<!-- Generator: Adobe Illustrator 22.1.0, SVG Export Plug-In . SVG Version: 6.00 Build 0)  -->
<svg version="1.1" id="Layer_1" xmlns="http://www.w3.org/2000/svg" xmlns:xlink="http://www.w3.org/1999/xlink" x="0px" y="0px"
	 viewBox="0 0 28.4 28.5" style="enable-background:new 0 0 28.4 28.5;" xml:space="preserve">
<style type="text/css">
	.st0{fill:url(#);}
	.st1{fill:url(#SVGID_1_);}
	.st2{fill:url(#SVGID_2_);}
	.st3{fill:#FFFFFF;}
	.st4{fill:#4F2E14;}
	.st5{fill:#D3D9B2;}
	.st6{fill:#231F20;}
	.st7{clip-path:url(#SVGID_4_);fill:none;stroke:#231F20;stroke-width:0.8117;}
	.st8{fill:#FFD24F;}
	.st9{fill:#E31837;}
	.st10{fill:#562100;}
	.st11{fill:#333333;}
	.st12{fill:#B0D7D6;}
	.st13{fill:url(#SVGID_5_);}
	.st14{fill:#304E72;}
	.st15{clip-path:url(#SVGID_7_);fill:none;stroke:#231F20;stroke-width:0.8117;}
	.st16{fill:#663700;}
	.st17{fill:none;stroke:#8C8C8C;stroke-width:1.1145;stroke-miterlimit:10;}
	.st18{fill:none;stroke:#FFFFFF;stroke-width:0.896;}
	.st19{fill:#673918;}
	.st20{fill:#265580;}
	.st21{fill:#1DA1F2;}
	.st22{fill:#FF0000;}
	.st23{fill:#949494;}
	.st24{opacity:0.55;}
	.st25{fill:#666666;}
	.st26{fill:#808080;}
	.st27{fill:none;stroke:#FFFFFF;stroke-width:0.8328;stroke-miterlimit:10;}
	.st28{clip-path:url(#SVGID_9_);}
	.st29{fill:#534741;}
	.st30{fill:#80A0B1;}
	.st31{fill:#CE5A4F;}
	.st32{fill:#DAB168;}
	.st33{fill:#A1B881;}
	.st34{fill:#E88058;}
	.st35{fill:none;stroke:#B3B3B3;stroke-width:0.8258;stroke-miterlimit:10;}
	.st36{clip-path:url(#SVGID_11_);}
	.st37{clip-path:url(#SVGID_13_);}
	.st38{clip-path:url(#SVGID_15_);}
	.st39{fill:none;stroke:#B3B3B3;stroke-width:0.8212;stroke-miterlimit:10;}
	.st40{clip-path:url(#SVGID_17_);}
	.st41{clip-path:url(#SVGID_19_);}
	.st42{fill:none;stroke:#B3B3B3;stroke-width:0.7924;stroke-miterlimit:10;}
	.st43{clip-path:url(#SVGID_21_);}
	.st44{clip-path:url(#SVGID_23_);}
	.st45{clip-path:url(#SVGID_25_);}
	.st46{clip-path:url(#SVGID_27_);}
	.st47{clip-path:url(#SVGID_29_);}
	.st48{clip-path:url(#SVGID_31_);}
	.st49{fill:none;stroke:#B3B3B3;stroke-width:0.8936;stroke-miterlimit:10;}
	.st50{fill:none;stroke:#FFFFFF;stroke-width:1.3089;stroke-miterlimit:10;}
	.st51{fill:none;stroke:#304E72;stroke-width:1.3089;stroke-miterlimit:10;}
	.st52{fill:#807455;}
	.st53{clip-path:url(#SVGID_35_);}
	.st54{clip-path:url(#SVGID_37_);}
	.st55{fill:#808075;}
	.st56{fill:none;stroke:#FFFFFF;stroke-width:0.6642;stroke-miterlimit:10;}
	.st57{clip-path:url(#SVGID_39_);}
	.st58{clip-path:url(#SVGID_41_);}
	.st59{clip-path:url(#SVGID_43_);}
	.st60{clip-path:url(#SVGID_45_);}
	.st61{clip-path:url(#SVGID_47_);}
	.st62{fill:url(#SVGID_48_);}
	.st63{clip-path:url(#SVGID_50_);fill:none;stroke:#231F20;stroke-width:0.8117;}
	.st64{clip-path:url(#SVGID_52_);}
	.st65{clip-path:url(#SVGID_54_);}
	.st66{clip-path:url(#SVGID_56_);}
	.st67{clip-path:url(#SVGID_58_);}
	.st68{clip-path:url(#SVGID_60_);}
	.st69{clip-path:url(#SVGID_62_);}
	.st70{clip-path:url(#SVGID_64_);}
	.st71{clip-path:url(#SVGID_66_);}
	.st72{clip-path:url(#SVGID_68_);}
	.st73{clip-path:url(#SVGID_70_);}
	.st74{clip-path:url(#SVGID_72_);}
	.st75{clip-path:url(#SVGID_74_);}
	.st76{clip-path:url(#SVGID_78_);}
	.st77{clip-path:url(#SVGID_80_);}
	.st78{clip-path:url(#SVGID_82_);}
	.st79{clip-path:url(#SVGID_84_);}
	.st80{clip-path:url(#SVGID_86_);}
	.st81{clip-path:url(#SVGID_88_);}
	.st82{clip-path:url(#SVGID_90_);}
	.st83{fill:none;stroke:#FFFFFF;stroke-width:0.8378;stroke-miterlimit:10;}
	.st84{fill:#CBCBCB;}
	.st85{clip-path:url(#SVGID_92_);}
	.st86{fill:none;stroke:#666666;stroke-width:2;stroke-miterlimit:10;}
	.st87{fill:#F1C868;}
	.st88{fill:#8B6239;}
	.st89{opacity:0.1;}
	.st90{fill:#988575;}
	.st91{opacity:0.48;}
	.st92{fill:#A57C52;}
	.st93{fill:url(#SVGID_93_);}
	.st94{fill:#8EB7C8;}
	.st95{fill:none;stroke:#663700;stroke-miterlimit:10;}
	.st96{clip-path:url(#SVGID_95_);fill:none;stroke:#231F20;stroke-width:0.8117;}
	.st97{clip-path:url(#SVGID_97_);}
	.st98{clip-path:url(#SVGID_99_);}
	.st99{clip-path:url(#SVGID_101_);}
	.st100{clip-path:url(#SVGID_103_);}
	.st101{clip-path:url(#SVGID_105_);}
	.st102{clip-path:url(#SVGID_107_);}
	.st103{clip-path:url(#SVGID_109_);}
	.st104{clip-path:url(#SVGID_111_);}
	.st105{clip-path:url(#SVGID_113_);}
	.st106{clip-path:url(#SVGID_115_);}
	.st107{clip-path:url(#SVGID_117_);}
	.st108{clip-path:url(#SVGID_121_);}
	.st109{clip-path:url(#SVGID_123_);}
	.st110{fill:none;stroke:#A57C52;stroke-width:7;stroke-miterlimit:10;}
	.st111{fill:url(#SVGID_124_);}
	.st112{clip-path:url(#SVGID_126_);fill:none;stroke:#231F20;stroke-width:0.8117;}
	.st113{clip-path:url(#SVGID_128_);}
	.st114{fill:#E5E5E5;}
	.st115{clip-path:url(#SVGID_130_);}
	.st116{clip-path:url(#SVGID_132_);}
	.st117{clip-path:url(#SVGID_134_);}
	.st118{clip-path:url(#SVGID_136_);}
	.st119{clip-path:url(#SVGID_138_);}
	.st120{clip-path:url(#SVGID_140_);}
	.st121{fill:none;stroke:#B3B3B3;stroke-width:0.6937;stroke-miterlimit:10;}
	.st122{clip-path:url(#SVGID_142_);}
	.st123{clip-path:url(#SVGID_144_);}
	.st124{clip-path:url(#SVGID_146_);}
	.st125{clip-path:url(#SVGID_148_);}
	.st126{clip-path:url(#SVGID_150_);}
	.st127{clip-path:url(#SVGID_152_);}
	.st128{clip-path:url(#SVGID_154_);}
	.st129{clip-path:url(#SVGID_156_);}
	.st130{clip-path:url(#SVGID_158_);}
	.st131{clip-path:url(#SVGID_160_);}
	.st132{clip-path:url(#SVGID_162_);}
	.st133{clip-path:url(#SVGID_164_);}
	.st134{fill:none;stroke:#B3B3B3;stroke-width:0.7508;stroke-miterlimit:10;}
	.st135{clip-path:url(#SVGID_166_);}
	.st136{clip-path:url(#SVGID_168_);}
	.st137{clip-path:url(#SVGID_170_);}
	.st138{clip-path:url(#SVGID_172_);}
	.st139{clip-path:url(#SVGID_174_);}
	.st140{clip-path:url(#SVGID_176_);}
	.st141{fill:url(#SVGID_177_);}
	.st142{clip-path:url(#SVGID_179_);fill:none;stroke:#231F20;stroke-width:0.8117;}
	.st143{clip-path:url(#SVGID_181_);}
	.st144{clip-path:url(#SVGID_183_);}
	.st145{clip-path:url(#SVGID_185_);}
	.st146{clip-path:url(#SVGID_187_);}
	.st147{clip-path:url(#SVGID_189_);}
	.st148{clip-path:url(#SVGID_191_);}
	.st149{clip-path:url(#SVGID_193_);}
	.st150{opacity:0.38;}
	.st151{fill:url(#SVGID_194_);}
	.st152{clip-path:url(#SVGID_196_);fill:none;stroke:#231F20;stroke-width:0.8117;}
	.st153{clip-path:url(#SVGID_198_);}
	.st154{clip-path:url(#SVGID_200_);}
	.st155{clip-path:url(#SVGID_202_);}
	.st156{clip-path:url(#SVGID_204_);}
	.st157{clip-path:url(#SVGID_206_);}
	.st158{clip-path:url(#SVGID_208_);}
	.st159{clip-path:url(#SVGID_210_);}
</style>
<g>
	<g>
		<g>
			<path class="st3" d="M6.3,2.2c7.2,0,14.4,0,21.6,0c0.1,0.2,0.3,0.3,0.3,0.5c0.1,0.2,0,0.4,0,0.7c0,7.3,0,14.5,0,21.8
				c0,0.4,0.1,0.9-0.5,1.2c-0.7,0-1.6,0-2.4,0c0,0.5,0,1,0,1.5c-0.2,0.1-0.5,0.2-0.7,0.3c-0.2,0-0.4,0-0.7,0c-6.5,0-12.9,0-19.4,0
				c-1.7,0-2.9-0.8-3.7-2.2c-0.4-0.7-0.6-1.5-0.6-2.4c0-6.7,0-13.4,0-20.1c0-1.3,0.6-2.6,2.2-3.1c0.8-0.3,1.6-0.2,2.3,0.3
				C5.4,1.1,5.7,1.7,6.3,2.2z M27.1,25.3c0-7.3,0-14.5,0-21.7c-6.9,0-13.8,0-20.7,0c0,7,0,13.9,0,20.8c0.6,0.7,1.3,1,2.2,0.9
				c4.2,0,8.4,0,12.6,0C23.1,25.3,25.1,25.3,27.1,25.3z M5.3,21.9c0-0.2,0-0.4,0-0.7c0-5.8,0-11.6,0-17.4C5.3,3.4,5.2,3,5,2.6
				C4.7,1.5,3.6,1.1,2.6,1.5c-0.9,0.4-1.3,1-1.3,2c0,6,0,12,0,17.9c0,0.1,0,0.2,0,0.4C2.5,21.2,3.1,21,5.3,21.9z M2.5,22.5
				c-0.9,0.3-1.4,1.3-1.1,2.3c0.5,1.4,2,2.4,3.5,2.4c6-0.1,12,0,18,0c0.4,0,0.8,0,1.2,0c0-0.3,0-0.5,0-0.8c-0.5,0-1,0-1.4,0
				c-4.9,0-9.8,0-14.7,0c-1.5,0-2.5-0.8-2.7-2.2C5.1,22.8,3.6,22.1,2.5,22.5z"/>
			<path class="st3" d="M24.9,15.5c-2.3,0-4.5,0-6.7,0c-0.4,0-0.7,0.1-0.9-0.6c0-2.3,0-4.8,0-7.2c0.2-0.4,0.6-0.4,0.9-0.4
				c2.2,0,4.4,0,6.7,0c0.1,0.2,0.3,0.4,0.3,0.7c0,2.3,0,4.6,0,6.9C25.2,15,25,15.2,24.9,15.5z M24.2,8.3c-2,0-3.9,0-5.8,0
				c0,2,0,3.9,0,5.8c2,0,3.9,0,5.8,0C24.2,12.1,24.2,10.3,24.2,8.3z"/>
			<path class="st3" d="M25.2,17.4c0,0.9-0.1,1-0.9,1c-3.7,0-7.4,0-11.1,0c-1.4,0-2.7,0-4.1,0c-0.7,0-0.7-0.1-0.8-1
				C13.9,17.4,19.6,17.4,25.2,17.4z"/>
			<path class="st3" d="M25.3,20.2c-5.8,0-11.4,0-17,0c0-0.9,0.1-1,0.9-1c3.6,0,7.2,0,10.9,0c1.5,0,2.9,0,4.4,0c0.3,0,0.6,0,0.7,0.3
				C25.2,19.6,25.2,19.9,25.3,20.2z"/>
			<path class="st3" d="M8.3,21.3c5.6,0,11.3,0,16.9,0c0,0.9-0.1,1-0.9,1c-3.7,0-7.4,0-11.1,0c-1.4,0-2.7,0-4.1,0
				C8.4,22.4,8.3,22.3,8.3,21.3z"/>
			<path class="st3" d="M16.2,9.4c0,0.9-0.1,1-0.8,1c-2.1,0-4.2,0-6.3,0c-0.7,0-0.7-0.1-0.8-1C10.9,9.4,13.5,9.4,16.2,9.4z"/>
			<path class="st3" d="M16.3,12.2c-2.8,0-5.4,0-8,0c0-0.9,0.1-1,0.7-1c2.1,0,4.2,0,6.3,0c0.3,0,0.6,0,0.7,0.3
				C16.2,11.7,16.2,11.9,16.3,12.2z"/>
			<path class="st3" d="M16.2,13.4c0,0.9-0.1,1-0.8,1c-2.1,0-4.2,0-6.3,0c-0.7,0-0.7-0.1-0.8-1C10.9,13.4,13.5,13.4,16.2,13.4z"/>
			<path class="st3" d="M16.2,16.2c-2.6,0-5.2,0-7.9,0c0-0.9,0.1-1,0.8-1c2.1,0,4.2,0,6.3,0C16.1,15.2,16.1,15.3,16.2,16.2z"/>
			<path class="st3" d="M16.3,8.2c-2.8,0-5.4,0-8,0c0-0.9,0.1-1,0.7-1c2.1,0,4.2,0,6.3,0c0.3,0,0.6,0,0.7,0.3
				C16.2,7.7,16.2,7.9,16.3,8.2z"/>
			<path class="st3" d="M12.2,4.8c0-0.4,0.7-0.5,1-0.5c1.9,0,3.9,0,5.9,0c0,0.3,0,0.7,0,1.1c-2.1,0-4.2,0-6.2,0
				C12.7,5.3,12.2,5.1,12.2,4.8z"/>
		</g>
	</g>
</g>
</svg>
